<svg width="12" height="12" viewBox="0 0 12 12" fill="none" xmlns="http://www.w3.org/2000/svg">
<g clip-path="url(#clip0_20_989)">
<path d="M7.34531 0.771055C7.95469 0.89293 8.35078 1.4859 8.22891 2.09527L8.175 2.36246C8.05078 2.98824 7.82109 3.58355 7.5 4.12496H10.875C11.4961 4.12496 12 4.62887 12 5.24996C12 5.68355 11.7539 6.0609 11.393 6.2484C11.6484 6.45465 11.8125 6.77105 11.8125 7.12496C11.8125 7.6734 11.4187 8.13043 10.9008 8.22887C11.0039 8.39996 11.0625 8.59918 11.0625 8.81246C11.0625 9.31168 10.7367 9.7359 10.2867 9.88121C10.3031 9.95856 10.3125 10.0406 10.3125 10.125C10.3125 10.7461 9.80859 11.25 9.1875 11.25H6.90234C6.45703 11.25 6.02344 11.1187 5.65312 10.8726L4.75078 10.2703C4.125 9.85309 3.75 9.14996 3.75 8.39762V7.49996V6.37496V5.79137C3.75 5.10699 4.06172 4.46246 4.59375 4.03355L4.76719 3.89527C5.38828 3.3984 5.8125 2.69996 5.96719 1.92184L6.02109 1.65465C6.14297 1.04527 6.73594 0.64918 7.34531 0.771055ZM0.75 4.49996H2.25C2.66484 4.49996 3 4.83512 3 5.24996V10.5C3 10.9148 2.66484 11.25 2.25 11.25H0.75C0.335156 11.25 0 10.9148 0 10.5V5.24996C0 4.83512 0.335156 4.49996 0.75 4.49996Z" fill="#757575"/>
</g>
<defs>
<clipPath id="clip0_20_989">
<rect width="12" height="12" fill="white"/>
</clipPath>
</defs>
</svg>
