<svg width="12" height="12" viewBox="0 0 12 12" fill="none" xmlns="http://www.w3.org/2000/svg">
<path d="M7.58906 1.06519C6.69375 0.809726 5.75859 1.32769 5.50313 2.22301L5.36953 2.69176C5.28281 2.99644 5.12578 3.27769 4.9125 3.51207L3.71016 4.83394C3.50156 5.06363 3.51797 5.41988 3.74766 5.62848C3.97734 5.83707 4.33359 5.82066 4.54219 5.59098L5.74453 4.2691C6.075 3.90582 6.31641 3.47223 6.45 3.00113L6.58359 2.53238C6.66797 2.23473 6.97969 2.06129 7.27969 2.14566C7.57969 2.23004 7.75078 2.54176 7.66641 2.84176L7.53281 3.31051C7.39922 3.77691 7.18828 4.21754 6.90937 4.61129C6.7875 4.78238 6.77344 5.00738 6.86953 5.19488C6.96563 5.38238 7.15781 5.49957 7.36875 5.49957H10.5C10.7063 5.49957 10.875 5.66832 10.875 5.87457C10.875 6.03394 10.7742 6.17223 10.6313 6.22613C10.4578 6.29176 10.3266 6.43707 10.282 6.61754C10.2375 6.79801 10.2844 6.98785 10.4062 7.12613C10.4648 7.19176 10.5 7.27848 10.5 7.37457C10.5 7.55738 10.3687 7.70973 10.1953 7.74254C10.0031 7.78004 9.84141 7.91363 9.77344 8.09644C9.70547 8.27926 9.73594 8.48785 9.85781 8.64254C9.90703 8.70582 9.9375 8.78551 9.9375 8.87457C9.9375 9.0316 9.83906 9.16988 9.69844 9.22379C9.42891 9.32926 9.28359 9.61988 9.36094 9.89879C9.37031 9.92926 9.375 9.96441 9.375 9.99957C9.375 10.2058 9.20625 10.3746 9 10.3746H6.71484C6.41953 10.3746 6.12891 10.2879 5.88281 10.1238L4.43672 9.16051C4.17891 8.98707 3.82969 9.05738 3.65625 9.31754C3.48281 9.57769 3.55312 9.92457 3.81328 10.098L5.25937 11.0613C5.69062 11.3496 6.19688 11.5019 6.71484 11.5019H9C9.81328 11.5019 10.4742 10.855 10.5 10.0488C10.8422 9.77457 11.0625 9.35269 11.0625 8.87691C11.0625 8.77144 11.0508 8.67066 11.032 8.57223C11.393 8.29801 11.625 7.86441 11.625 7.37691C11.625 7.22457 11.6016 7.07691 11.5594 6.93863C11.8313 6.66441 12 6.28941 12 5.87457C12 5.04723 11.3297 4.37457 10.5 4.37457H8.33672C8.44688 4.13082 8.54062 3.87769 8.61328 3.61988L8.74688 3.15113C9.00234 2.25582 8.48438 1.32066 7.58906 1.06519ZM0.75 4.74957C0.335156 4.74957 0 5.08473 0 5.49957V10.7496C0 11.1644 0.335156 11.4996 0.75 11.4996H2.25C2.66484 11.4996 3 11.1644 3 10.7496V5.49957C3 5.08473 2.66484 4.74957 2.25 4.74957H0.75Z" fill="#757575"/>
</svg>
