<svg width="25" height="25" viewBox="0 0 25 25" fill="none" xmlns="http://www.w3.org/2000/svg">
<g clip-path="url(#clip0_622_335)">
<path d="M7.99247 23.0022L20.5693 24.3356C21.0912 24.3908 21.6054 24.244 22.0074 23.9242C22.4095 23.6044 22.6682 23.1364 22.7318 22.6154L24.2617 10.061C24.5218 7.95225 23.8933 5.78411 22.5346 4.07591L22.3447 3.83718C20.0561 0.960004 16.1335 0.074756 13.0675 1.74067C11.0388 2.84367 9.71545 4.89764 9.51031 7.25169L9.4348 8.11821L8.5735 7.99686C6.23364 7.6672 3.93463 8.49456 2.40352 10.2232C0.0906217 12.8358 0.0707917 16.857 2.3594 19.7342L2.5493 19.9729C3.90806 21.6811 5.87926 22.7812 7.99247 23.0022Z" fill="#77CBD6"/>
<path d="M20.3498 9.13636C20.3559 9.09394 20.371 9.06061 20.3951 9.03636C20.4253 9.01212 20.4585 9 20.4947 9H21.8896C21.9258 9 21.953 9.01212 21.9711 9.03636C21.9952 9.06061 22.0043 9.09394 21.9983 9.13636L21.2556 15.2273C21.2495 15.2697 21.2314 15.303 21.2012 15.3273C21.1771 15.3515 21.1469 15.3636 21.1106 15.3636H19.7158C19.6796 15.3636 19.6494 15.3515 19.6252 15.3273C19.6071 15.303 19.6011 15.2697 19.6071 15.2273L19.8879 12.9273C19.8879 12.8909 19.8728 12.8727 19.8426 12.8727H18.484C18.4478 12.8727 18.4297 12.8909 18.4297 12.9273L18.1489 15.2273C18.1429 15.2697 18.1248 15.303 18.0946 15.3273C18.0704 15.3515 18.0372 15.3636 17.9949 15.3636H16.6092C16.5669 15.3636 16.5337 15.3515 16.5095 15.3273C16.4914 15.303 16.4854 15.2697 16.4914 15.2273L17.2432 9.13636C17.2492 9.09394 17.2643 9.06061 17.2885 9.03636C17.3126 9.01212 17.3458 9 17.3881 9H18.7739C18.8161 9 18.8463 9.01212 18.8644 9.03636C18.8886 9.06061 18.8976 9.09394 18.8916 9.13636L18.6199 11.3545C18.6139 11.3909 18.6289 11.4091 18.6652 11.4091H20.0147C20.0509 11.4091 20.0721 11.3909 20.0781 11.3545L20.3498 9.13636ZM20.9476 16.6364C20.9838 16.6364 21.011 16.6485 21.0291 16.6727C21.0533 16.697 21.0623 16.7303 21.0563 16.7727L20.9114 17.9727C20.9053 18.0151 20.8902 18.0485 20.8661 18.0727C20.8419 18.097 20.8087 18.1091 20.7665 18.1091H19.2992C19.269 18.1091 19.2479 18.1273 19.2358 18.1636L18.6652 22.8636C18.6591 22.9061 18.641 22.9394 18.6108 22.9636C18.5867 22.9879 18.5535 23 18.5112 23H17.1254C17.0832 23 17.05 22.9879 17.0258 22.9636C17.0077 22.9394 17.0016 22.9061 17.0077 22.8636L17.5874 18.1636C17.5874 18.1273 17.5723 18.1091 17.5421 18.1091H16.1201C16.0778 18.1091 16.0446 18.097 16.0204 18.0727C16.0023 18.0485 15.9963 18.0151 16.0023 17.9727L16.1472 16.7727C16.1533 16.7303 16.1684 16.697 16.1925 16.6727C16.2227 16.6485 16.2589 16.6364 16.3012 16.6364H20.9476Z" fill="white"/>
</g>
<defs>
<clipPath id="clip0_622_335">
<rect width="25" height="25" fill="white"/>
</clipPath>
</defs>
</svg>
