<svg width="12" height="12" viewBox="0 0 12 12" fill="none" xmlns="http://www.w3.org/2000/svg">
<g clip-path="url(#clip0_20_987)">
<path d="M7.58906 0.815683C6.69375 0.560214 5.75859 1.07818 5.50313 1.9735L5.36953 2.44225C5.28281 2.74693 5.12578 3.02818 4.9125 3.26256L3.71016 4.58443C3.50156 4.81412 3.51797 5.17037 3.74766 5.37896C3.97734 5.58756 4.33359 5.57115 4.54219 5.34146L5.74453 4.01959C6.075 3.65631 6.31641 3.22271 6.45 2.75162L6.58359 2.28287C6.66797 1.98521 6.97969 1.81178 7.27969 1.89615C7.57969 1.98053 7.75078 2.29225 7.66641 2.59225L7.53281 3.061C7.39922 3.5274 7.18828 3.96803 6.90937 4.36178C6.7875 4.53287 6.77344 4.75787 6.86953 4.94537C6.96563 5.13287 7.15781 5.25006 7.36875 5.25006H10.5C10.7063 5.25006 10.875 5.41881 10.875 5.62506C10.875 5.78443 10.7742 5.92271 10.6313 5.97662C10.4578 6.04225 10.3266 6.18756 10.282 6.36803C10.2375 6.5485 10.2844 6.73834 10.4062 6.87662C10.4648 6.94225 10.5 7.02896 10.5 7.12506C10.5 7.30787 10.3687 7.46021 10.1953 7.49303C10.0031 7.53053 9.84141 7.66412 9.77344 7.84693C9.70547 8.02975 9.73594 8.23834 9.85781 8.39303C9.90703 8.45631 9.9375 8.536 9.9375 8.62506C9.9375 8.78209 9.83906 8.92037 9.69844 8.97428C9.42891 9.07975 9.28359 9.37037 9.36094 9.64928C9.37031 9.67975 9.375 9.7149 9.375 9.75006C9.375 9.95631 9.20625 10.1251 9 10.1251H6.71484C6.41953 10.1251 6.12891 10.0383 5.88281 9.87428L4.43672 8.911C4.17891 8.73756 3.82969 8.80787 3.65625 9.06803C3.48281 9.32818 3.55312 9.67506 3.81328 9.8485L5.25937 10.8118C5.69062 11.1001 6.19688 11.2524 6.71484 11.2524H9C9.81328 11.2524 10.4742 10.6055 10.5 9.79928C10.8422 9.52506 11.0625 9.10318 11.0625 8.6274C11.0625 8.52193 11.0508 8.42115 11.032 8.32271C11.393 8.0485 11.625 7.6149 11.625 7.1274C11.625 6.97506 11.6016 6.8274 11.5594 6.68912C11.8313 6.4149 12 6.0399 12 5.62506C12 4.79771 11.3297 4.12506 10.5 4.12506H8.33672C8.44688 3.88131 8.54062 3.62818 8.61328 3.37037L8.74688 2.90162C9.00234 2.00631 8.48438 1.07115 7.58906 0.815683ZM0.75 4.50006C0.335156 4.50006 0 4.83521 0 5.25006V10.5001C0 10.9149 0.335156 11.2501 0.75 11.2501H2.25C2.66484 11.2501 3 10.9149 3 10.5001V5.25006C3 4.83521 2.66484 4.50006 2.25 4.50006H0.75Z" fill="#757575"/>
</g>
<defs>
<clipPath id="clip0_20_987">
<rect width="12" height="12" fill="white"/>
</clipPath>
</defs>
</svg>
