<svg width="12" height="12" viewBox="0 0 12 12" fill="none" xmlns="http://www.w3.org/2000/svg">
<g clip-path="url(#clip0_20_425)">
<path d="M3.75 8.625C4.37109 8.625 4.875 9.12891 4.875 9.75V10.125L6.57422 8.85C6.76875 8.70469 7.00547 8.625 7.24922 8.625H10.5C10.7063 8.625 10.875 8.45625 10.875 8.25V1.5C10.875 1.29375 10.7063 1.125 10.5 1.125H1.5C1.29375 1.125 1.125 1.29375 1.125 1.5V8.25C1.125 8.45625 1.29375 8.625 1.5 8.625H3.75ZM4.875 11.5312L4.87031 11.5359L4.75078 11.625L4.35 11.925C4.2375 12.0094 4.08516 12.0234 3.95625 11.9602C3.82734 11.8969 3.75 11.768 3.75 11.625V11.1258V10.9758V10.9688V10.875V9.75H2.625H1.5C0.672656 9.75 0 9.07734 0 8.25V1.5C0 0.672656 0.672656 0 1.5 0H10.5C11.3273 0 12 0.672656 12 1.5V8.25C12 9.07734 11.3273 9.75 10.5 9.75H7.24922L4.875 11.5312Z" fill="#757575"/>
</g>
<defs>
<clipPath id="clip0_20_425">
<rect width="12" height="12" fill="white"/>
</clipPath>
</defs>
</svg>
