<svg width="12" height="12" viewBox="0 0 12 12" fill="none" xmlns="http://www.w3.org/2000/svg">
<path d="M5.29219 10.9735L5.23359 10.9196L1.12734 7.10628C0.407812 6.43831 0 5.50081 0 4.51878V4.44144C0 2.79144 1.17188 1.37581 2.79375 1.06644C3.71719 0.888311 4.66172 1.10159 5.41406 1.63128C5.625 1.78128 5.82188 1.95472 6 2.15394C6.09844 2.04144 6.20391 1.93831 6.31641 1.84222C6.40312 1.76722 6.49219 1.6969 6.58594 1.63128C7.33828 1.10159 8.28281 0.888311 9.20625 1.06409C10.8281 1.37347 12 2.79144 12 4.44144V4.51878C12 5.50081 11.5922 6.43831 10.8727 7.10628L6.76641 10.9196L6.70781 10.9735C6.51563 11.1516 6.2625 11.2524 6 11.2524C5.7375 11.2524 5.48438 11.1539 5.29219 10.9735ZM5.60391 3.39847C5.59453 3.39144 5.5875 3.38206 5.58047 3.37269L5.16328 2.90394L5.16094 2.90159C4.61953 2.29456 3.80156 2.018 3.00469 2.17034C1.9125 2.37894 1.125 3.3305 1.125 4.44144V4.51878C1.125 5.18675 1.40391 5.82659 1.89375 6.28128L6 10.0946L10.1063 6.28128C10.5961 5.82659 10.875 5.18675 10.875 4.51878V4.44144C10.875 3.33284 10.0875 2.37894 8.99766 2.17034C8.20078 2.018 7.38047 2.2969 6.84141 2.90159C6.84141 2.90159 6.84141 2.90159 6.83906 2.90394C6.83672 2.90628 6.83906 2.90394 6.83672 2.90628L6.41953 3.37503C6.4125 3.3844 6.40312 3.39144 6.39609 3.40081C6.29062 3.50628 6.14766 3.56487 6 3.56487C5.85234 3.56487 5.70938 3.50628 5.60391 3.40081V3.39847Z" fill="#F66565"/>
</svg>
