<svg width="327" height="144" viewBox="0 0 327 144" fill="none" xmlns="http://www.w3.org/2000/svg">
<g clip-path="url(#clip0_145_324)">
<mask id="mask0_145_324" style="mask-type:luminance" maskUnits="userSpaceOnUse" x="0" y="0" width="327" height="144">
<path d="M327 0H0V144H327V0Z" fill="white"/>
</mask>
<g mask="url(#mask0_145_324)">
<path d="M126.968 51H316.712L306.457 133.527H116.712L126.968 51Z" fill="white"/>
<path d="M115.012 51.75C115.046 51.5167 115.129 51.3333 115.262 51.2C115.429 51.0667 115.612 51 115.812 51H123.512C123.712 51 123.862 51.0667 123.962 51.2C124.096 51.3333 124.146 51.5167 124.112 51.75L120.012 85.25C119.979 85.4833 119.879 85.6667 119.712 85.8C119.579 85.9333 119.412 86 119.212 86H111.512C111.312 86 111.146 85.9333 111.012 85.8C110.912 85.6667 110.879 85.4833 110.913 85.25L112.462 72.6C112.462 72.4 112.379 72.3 112.212 72.3H104.712C104.512 72.3 104.412 72.4 104.412 72.6L102.862 85.25C102.829 85.4833 102.729 85.6667 102.562 85.8C102.429 85.9333 102.246 86 102.012 86H94.3625C94.1292 86 93.9458 85.9333 93.8125 85.8C93.7125 85.6667 93.6792 85.4833 93.7125 85.25L97.8625 51.75C97.8958 51.5167 97.9792 51.3333 98.1125 51.2C98.2458 51.0667 98.4292 51 98.6625 51H106.312C106.546 51 106.712 51.0667 106.812 51.2C106.946 51.3333 106.996 51.5167 106.962 51.75L105.462 63.95C105.429 64.15 105.512 64.25 105.712 64.25H113.163C113.363 64.25 113.479 64.15 113.512 63.95L115.012 51.75ZM118.312 93C118.513 93 118.662 93.0667 118.762 93.2C118.896 93.3333 118.946 93.5167 118.912 93.75L118.112 100.35C118.079 100.583 117.996 100.767 117.862 100.9C117.729 101.033 117.546 101.1 117.312 101.1H109.212C109.046 101.1 108.929 101.2 108.862 101.4L105.712 127.25C105.679 127.483 105.579 127.667 105.413 127.8C105.279 127.933 105.096 128 104.862 128H97.2125C96.9792 128 96.7958 127.933 96.6625 127.8C96.5625 127.667 96.5292 127.483 96.5625 127.25L99.7625 101.4C99.7625 101.2 99.6792 101.1 99.5125 101.1H91.6625C91.4292 101.1 91.2458 101.033 91.1125 100.9C91.0125 100.767 90.9792 100.583 91.0125 100.35L91.8125 93.75C91.8458 93.5167 91.9292 93.3333 92.0625 93.2C92.2292 93.0667 92.4292 93 92.6625 93H118.312Z" fill="white"/>
<path d="M78.7342 18.4139C92.6455 10.8558 110.768 14.7577 121.473 28.2162L122.477 29.4782C128.854 37.4954 131.762 47.6238 130.558 57.3918L130.557 57.3989L122.469 123.763C122.288 125.248 121.563 126.521 120.491 127.374C119.419 128.226 118.016 128.647 116.528 128.489L50.0454 121.441L50.0383 121.44C40.2497 120.416 31.035 115.304 24.6578 107.287L23.654 106.025C12.9486 92.5667 13.2234 74.0309 23.7171 62.1764M23.7179 62.1755C30.6651 54.3327 41.1324 50.5275 51.8922 52.0435L56.4451 52.685L61.6661 53.4205L62.1238 48.1679L62.523 43.5873C63.4663 32.7624 69.5285 23.4193 78.7331 18.4144" stroke="white" stroke-width="10"/>
<path d="M135.551 86.4801C133.578 86.4801 131.858 86.1068 130.391 85.3601C128.951 84.6134 127.831 83.5601 127.031 82.2001C126.258 80.8401 125.871 79.2401 125.871 77.4001C125.871 76.8668 125.911 76.3201 125.991 75.7601L126.911 68.2401C127.178 66.1601 127.858 64.3201 128.951 62.7201C130.044 61.1201 131.458 59.8801 133.191 59.0001C134.951 58.1201 136.911 57.6801 139.071 57.6801C141.044 57.6801 142.764 58.0534 144.231 58.8001C145.698 59.5201 146.818 60.5601 147.591 61.9201C148.391 63.2534 148.791 64.8268 148.791 66.6401C148.791 67.1468 148.751 67.6801 148.671 68.2401L147.751 75.7601C147.511 77.8934 146.831 79.7734 145.711 81.4001C144.618 83.0001 143.191 84.2534 141.431 85.1601C139.671 86.0401 137.711 86.4801 135.551 86.4801ZM136.351 80.0401C137.444 80.0401 138.364 79.6801 139.111 78.9601C139.858 78.2134 140.298 77.2268 140.431 76.0001L141.391 68.1601C141.418 68.0001 141.431 67.7601 141.431 67.4401C141.431 66.4268 141.151 65.6268 140.591 65.0401C140.031 64.4268 139.258 64.1201 138.271 64.1201C137.204 64.1201 136.298 64.4934 135.551 65.2401C134.804 65.9601 134.364 66.9334 134.231 68.1601L133.271 76.0001C133.244 76.1601 133.231 76.4001 133.231 76.7201C133.231 77.7334 133.511 78.5468 134.071 79.1601C134.631 79.7468 135.391 80.0401 136.351 80.0401ZM168.694 71.4001C168.587 71.4268 168.534 71.4801 168.534 71.5601C168.534 71.6134 168.574 71.6668 168.654 71.7201C170.414 72.8134 171.294 74.4801 171.294 76.7201C171.294 76.9868 171.267 77.4134 171.214 78.0001C170.867 80.7468 169.68 82.7734 167.654 84.0801C165.654 85.3601 163.16 86.0001 160.174 86.0001H149.734C149.547 86.0001 149.4 85.9468 149.294 85.8401C149.214 85.7334 149.187 85.5868 149.214 85.4001L152.534 58.6001C152.56 58.4134 152.627 58.2667 152.734 58.1601C152.84 58.0534 152.987 58.0001 153.174 58.0001H163.254C166.267 58.0001 168.534 58.5067 170.054 59.5201C171.574 60.5067 172.334 62.1468 172.334 64.4401C172.334 65.0801 172.307 65.5734 172.254 65.9201C171.934 68.4801 170.747 70.3068 168.694 71.4001ZM159.334 64.4401C159.2 64.4401 159.107 64.5201 159.054 64.6801L158.574 68.6001C158.574 68.7601 158.64 68.8401 158.774 68.8401H161.934C162.947 68.8401 163.72 68.6268 164.254 68.2001C164.787 67.7468 165.054 67.0934 165.054 66.2401C165.054 65.6534 164.827 65.2134 164.374 64.9201C163.947 64.6001 163.307 64.4401 162.454 64.4401H159.334ZM160.974 79.5601C162.787 79.5601 163.8 78.7734 164.014 77.2001C164.174 75.7068 163.36 74.9601 161.574 74.9601H158.014C157.854 74.9601 157.774 75.0401 157.774 75.2001L157.254 79.3201C157.254 79.4801 157.32 79.5601 157.454 79.5601H160.974ZM192.561 71.4001C192.454 71.4268 192.401 71.4801 192.401 71.5601C192.401 71.6134 192.441 71.6668 192.521 71.7201C194.281 72.8134 195.16 74.4801 195.16 76.7201C195.16 76.9868 195.134 77.4134 195.08 78.0001C194.734 80.7468 193.547 82.7734 191.521 84.0801C189.521 85.3601 187.027 86.0001 184.041 86.0001H173.601C173.414 86.0001 173.267 85.9468 173.161 85.8401C173.081 85.7334 173.054 85.5868 173.081 85.4001L176.401 58.6001C176.427 58.4134 176.494 58.2667 176.601 58.1601C176.707 58.0534 176.854 58.0001 177.041 58.0001H187.121C190.134 58.0001 192.401 58.5067 193.921 59.5201C195.44 60.5067 196.2 62.1468 196.2 64.4401C196.2 65.0801 196.174 65.5734 196.12 65.9201C195.8 68.4801 194.614 70.3068 192.561 71.4001ZM183.201 64.4401C183.067 64.4401 182.974 64.5201 182.921 64.6801L182.441 68.6001C182.441 68.7601 182.507 68.8401 182.641 68.8401H185.801C186.814 68.8401 187.587 68.6268 188.121 68.2001C188.654 67.7468 188.921 67.0934 188.921 66.2401C188.921 65.6534 188.694 65.2134 188.241 64.9201C187.814 64.6001 187.174 64.4401 186.321 64.4401H183.201ZM184.841 79.5601C186.654 79.5601 187.667 78.7734 187.881 77.2001C188.041 75.7068 187.227 74.9601 185.441 74.9601H181.881C181.721 74.9601 181.641 75.0401 181.641 75.2001L181.121 79.3201C181.121 79.4801 181.187 79.5601 181.321 79.5601H184.841ZM202.642 85.9201C202.482 85.9201 202.349 85.8668 202.242 85.7601C202.162 85.6534 202.135 85.5068 202.162 85.3201L203.242 76.5201C203.242 76.3601 203.229 76.2534 203.202 76.2001L197.482 58.7201C197.455 58.6667 197.442 58.5867 197.442 58.4801C197.442 58.1601 197.615 58.0001 197.962 58.0001H204.642C204.989 58.0001 205.202 58.1601 205.282 58.4801L207.762 67.9601C207.815 68.0668 207.869 68.1201 207.922 68.1201C208.002 68.1201 208.055 68.0668 208.082 67.9601L212.882 58.4801C213.042 58.1601 213.295 58.0001 213.642 58.0001H220.362C220.682 58.0001 220.842 58.1201 220.842 58.3601C220.842 58.4667 220.802 58.5867 220.722 58.7201L210.602 76.2001C210.522 76.3601 210.482 76.4668 210.482 76.5201L209.402 85.3201C209.375 85.5068 209.295 85.6534 209.162 85.7601C209.055 85.8668 208.922 85.9201 208.762 85.9201H202.642ZM130.77 128.48C128.797 128.48 127.077 128.107 125.61 127.36C124.17 126.613 123.05 125.56 122.25 124.2C121.477 122.84 121.09 121.24 121.09 119.4C121.09 118.867 121.13 118.32 121.21 117.76L122.13 110.24C122.397 108.16 123.077 106.32 124.17 104.72C125.263 103.12 126.677 101.88 128.41 101C130.17 100.12 132.13 99.6801 134.29 99.6801C136.263 99.6801 137.983 100.053 139.45 100.8C140.917 101.52 142.037 102.56 142.81 103.92C143.61 105.253 144.01 106.827 144.01 108.64C144.01 109.147 143.97 109.68 143.89 110.24L142.97 117.76C142.73 119.893 142.05 121.773 140.93 123.4C139.837 125 138.41 126.253 136.65 127.16C134.89 128.04 132.93 128.48 130.77 128.48ZM131.57 122.04C132.663 122.04 133.583 121.68 134.33 120.96C135.077 120.213 135.517 119.227 135.65 118L136.61 110.16C136.637 110 136.65 109.76 136.65 109.44C136.65 108.427 136.37 107.627 135.81 107.04C135.25 106.427 134.477 106.12 133.49 106.12C132.423 106.12 131.517 106.493 130.77 107.24C130.023 107.96 129.583 108.933 129.45 110.16L128.49 118C128.463 118.16 128.45 118.4 128.45 118.72C128.45 119.733 128.73 120.547 129.29 121.16C129.85 121.747 130.61 122.04 131.57 122.04ZM154.672 128.32C151.739 128.32 149.419 127.52 147.712 125.92C146.032 124.293 145.192 122.107 145.192 119.36C145.192 118.667 145.219 118.133 145.272 117.76L146.192 110.2C146.459 108.12 147.126 106.28 148.192 104.68C149.286 103.08 150.686 101.853 152.392 101C154.126 100.12 156.059 99.6801 158.192 99.6801C160.112 99.6801 161.792 100.04 163.232 100.76C164.699 101.48 165.819 102.48 166.592 103.76C167.392 105.013 167.792 106.413 167.792 107.96C167.792 108.173 167.766 108.547 167.712 109.08V109.12C167.686 109.307 167.606 109.453 167.472 109.56C167.366 109.667 167.232 109.72 167.072 109.72H160.952C160.579 109.72 160.406 109.6 160.432 109.36C160.539 108.48 160.326 107.72 159.792 107.08C159.259 106.44 158.472 106.12 157.432 106.12C156.392 106.12 155.512 106.48 154.792 107.2C154.072 107.893 153.646 108.827 153.512 110L152.552 118C152.526 118.133 152.512 118.32 152.512 118.56C152.512 119.547 152.819 120.347 153.432 120.96C154.046 121.573 154.832 121.88 155.792 121.88C156.752 121.88 157.566 121.613 158.232 121.08C158.926 120.52 159.326 119.76 159.432 118.8L159.472 118.32C159.526 118.16 159.459 118.08 159.272 118.08H155.912C155.726 118.08 155.579 118.027 155.472 117.92C155.392 117.813 155.366 117.667 155.392 117.48L155.992 112.68C156.019 112.493 156.086 112.347 156.192 112.24C156.326 112.133 156.472 112.08 156.632 112.08H166.752C166.939 112.08 167.072 112.133 167.152 112.24C167.259 112.347 167.299 112.493 167.272 112.68L166.592 118.16C166.352 120.133 165.686 121.893 164.592 123.44C163.526 124.987 162.126 126.187 160.392 127.04C158.686 127.893 156.779 128.32 154.672 128.32ZM185.183 100.6C185.21 100.413 185.277 100.267 185.383 100.16C185.517 100.053 185.663 100 185.823 100H191.983C192.143 100 192.263 100.053 192.343 100.16C192.45 100.267 192.49 100.413 192.463 100.6L189.183 127.4C189.157 127.587 189.077 127.733 188.943 127.84C188.837 127.947 188.703 128 188.543 128H182.383C182.223 128 182.09 127.947 181.983 127.84C181.903 127.733 181.877 127.587 181.903 127.4L183.143 117.28C183.143 117.12 183.077 117.04 182.943 117.04H176.943C176.783 117.04 176.703 117.12 176.703 117.28L175.463 127.4C175.437 127.587 175.357 127.733 175.223 127.84C175.117 127.947 174.97 128 174.783 128H168.663C168.477 128 168.33 127.947 168.223 127.84C168.143 127.733 168.117 127.587 168.143 127.4L171.463 100.6C171.49 100.413 171.557 100.267 171.663 100.16C171.77 100.053 171.917 100 172.103 100H178.223C178.41 100 178.543 100.053 178.623 100.16C178.73 100.267 178.77 100.413 178.743 100.6L177.543 110.36C177.517 110.52 177.583 110.6 177.743 110.6H183.703C183.863 110.6 183.957 110.52 183.983 110.36L185.183 100.6ZM214.174 105.84C214.147 106.027 214.08 106.173 213.974 106.28C213.867 106.387 213.72 106.44 213.534 106.44H201.974C201.84 106.44 201.747 106.52 201.694 106.68L201.254 110.36C201.227 110.52 201.294 110.6 201.454 110.6H208.614C208.774 110.6 208.894 110.653 208.974 110.76C209.08 110.867 209.12 111.013 209.094 111.2L208.454 116.4C208.427 116.587 208.36 116.733 208.254 116.84C208.147 116.947 208 117 207.814 117H200.654C200.494 117 200.414 117.08 200.414 117.24L199.894 121.32C199.894 121.48 199.96 121.56 200.094 121.56H211.654C211.84 121.56 211.974 121.613 212.054 121.72C212.16 121.827 212.2 121.973 212.174 122.16L211.534 127.4C211.507 127.587 211.427 127.733 211.294 127.84C211.187 127.947 211.054 128 210.894 128H192.374C192.187 128 192.04 127.947 191.934 127.84C191.854 127.733 191.827 127.587 191.854 127.4L195.174 100.6C195.2 100.413 195.267 100.267 195.374 100.16C195.48 100.053 195.627 100 195.814 100H214.334C214.494 100 214.614 100.053 214.694 100.16C214.8 100.267 214.84 100.413 214.814 100.6L214.174 105.84ZM237.643 100C237.803 100 237.923 100.053 238.003 100.16C238.11 100.267 238.15 100.413 238.123 100.6L237.483 105.88C237.457 106.067 237.39 106.213 237.283 106.32C237.177 106.427 237.03 106.48 236.843 106.48H230.363C230.23 106.48 230.137 106.56 230.083 106.72L227.563 127.4C227.537 127.587 227.457 127.733 227.323 127.84C227.217 127.947 227.07 128 226.883 128H220.763C220.577 128 220.43 127.947 220.323 127.84C220.243 127.733 220.217 127.587 220.243 127.4L222.803 106.72C222.803 106.56 222.737 106.48 222.603 106.48H216.323C216.137 106.48 215.99 106.427 215.883 106.32C215.803 106.213 215.777 106.067 215.803 105.88L216.443 100.6C216.47 100.413 216.537 100.267 216.643 100.16C216.777 100.053 216.937 100 217.123 100H237.643ZM254.089 100.6C254.116 100.413 254.182 100.267 254.289 100.16C254.422 100.053 254.569 100 254.729 100H260.889C261.049 100 261.169 100.053 261.249 100.16C261.356 100.267 261.396 100.413 261.369 100.6L258.089 127.4C258.062 127.587 257.982 127.733 257.849 127.84C257.742 127.947 257.609 128 257.449 128H251.289C251.129 128 250.996 127.947 250.889 127.84C250.809 127.733 250.782 127.587 250.809 127.4L252.049 117.28C252.049 117.12 251.982 117.04 251.849 117.04H245.849C245.689 117.04 245.609 117.12 245.609 117.28L244.369 127.4C244.342 127.587 244.262 127.733 244.129 127.84C244.022 127.947 243.876 128 243.689 128H237.569C237.382 128 237.236 127.947 237.129 127.84C237.049 127.733 237.022 127.587 237.049 127.4L240.369 100.6C240.396 100.413 240.462 100.267 240.569 100.16C240.676 100.053 240.822 100 241.009 100H247.129C247.316 100 247.449 100.053 247.529 100.16C247.636 100.267 247.676 100.413 247.649 100.6L246.449 110.36C246.422 110.52 246.489 110.6 246.649 110.6H252.609C252.769 110.6 252.862 110.52 252.889 110.36L254.089 100.6ZM283.08 105.84C283.053 106.027 282.987 106.173 282.88 106.28C282.773 106.387 282.627 106.44 282.44 106.44H270.88C270.747 106.44 270.653 106.52 270.6 106.68L270.16 110.36C270.133 110.52 270.2 110.6 270.36 110.6H277.52C277.68 110.6 277.8 110.653 277.88 110.76C277.987 110.867 278.027 111.013 278 111.2L277.36 116.4C277.333 116.587 277.267 116.733 277.16 116.84C277.053 116.947 276.907 117 276.72 117H269.56C269.4 117 269.32 117.08 269.32 117.24L268.8 121.32C268.8 121.48 268.867 121.56 269 121.56H280.56C280.747 121.56 280.88 121.613 280.96 121.72C281.067 121.827 281.107 121.973 281.08 122.16L280.44 127.4C280.413 127.587 280.333 127.733 280.2 127.84C280.093 127.947 279.96 128 279.8 128H261.28C261.093 128 260.947 127.947 260.84 127.84C260.76 127.733 260.733 127.587 260.76 127.4L264.08 100.6C264.107 100.413 264.173 100.267 264.28 100.16C264.387 100.053 264.533 100 264.72 100H283.24C283.4 100 283.52 100.053 283.6 100.16C283.707 100.267 283.747 100.413 283.72 100.6L283.08 105.84ZM297.069 128C296.749 128 296.549 127.853 296.469 127.56L293.469 117.44C293.416 117.307 293.323 117.24 293.189 117.24H291.669C291.536 117.24 291.443 117.32 291.389 117.48L290.189 127.4C290.163 127.587 290.083 127.733 289.949 127.84C289.843 127.947 289.696 128 289.509 128H283.389C283.203 128 283.056 127.947 282.949 127.84C282.869 127.733 282.843 127.587 282.869 127.4L286.189 100.6C286.216 100.413 286.283 100.267 286.389 100.16C286.496 100.053 286.643 100 286.829 100H298.589C300.989 100 302.896 100.68 304.309 102.04C305.723 103.4 306.429 105.24 306.429 107.56C306.429 107.827 306.403 108.28 306.349 108.92C306.136 110.68 305.523 112.227 304.509 113.56C303.523 114.867 302.256 115.827 300.709 116.44C300.629 116.467 300.576 116.52 300.549 116.6C300.523 116.653 300.523 116.707 300.549 116.76L304.149 127.28C304.176 127.333 304.189 127.413 304.189 127.52C304.189 127.653 304.136 127.773 304.029 127.88C303.923 127.96 303.776 128 303.589 128H297.069ZM292.989 106.44C292.856 106.44 292.763 106.52 292.709 106.68L292.149 111.28C292.149 111.44 292.216 111.52 292.349 111.52H295.949C296.856 111.52 297.603 111.253 298.189 110.72C298.803 110.187 299.109 109.493 299.109 108.64C299.109 107.973 298.869 107.44 298.389 107.04C297.936 106.64 297.336 106.44 296.589 106.44H292.989Z" fill="#77CBD6"/>
</g>
</g>
<defs>
<clipPath id="clip0_145_324">
<rect width="327" height="144" fill="white"/>
</clipPath>
</defs>
</svg>
