<svg width="50" height="50" viewBox="0 0 50 50" fill="none" xmlns="http://www.w3.org/2000/svg">
<g clip-path="url(#clip0_209_353)">
<path d="M15.9848 46.0046L41.1385 48.6714C42.1824 48.7819 43.2106 48.4882 44.0147 47.8486C44.8188 47.209 45.3363 46.2731 45.4634 45.2311L48.5234 20.1223C49.0435 15.9048 47.7866 11.5685 45.069 8.15207L44.6893 7.6746C40.112 1.92025 32.2669 0.149756 26.135 3.48158C22.0774 5.68758 19.4308 9.79552 19.0205 14.5036L18.8695 16.2367L17.1469 15.994C12.4672 15.3346 7.86914 16.9894 4.80693 20.4467C0.181121 25.6719 0.141461 33.7143 4.71868 39.4686L5.09848 39.9461C7.81599 43.3625 11.7584 45.5626 15.9848 46.0046Z" fill="white"/>
<path d="M40.6995 18.2728C40.7116 18.188 40.7418 18.1213 40.7901 18.0728C40.8505 18.0244 40.9169 18.0001 40.9894 18.0001H43.779C43.8515 18.0001 43.9058 18.0244 43.942 18.0728C43.9903 18.1213 44.0084 18.188 43.9964 18.2728L42.511 30.4547C42.4989 30.5395 42.4627 30.6062 42.4023 30.6547C42.354 30.7031 42.2936 30.7274 42.2212 30.7274H39.4315C39.359 30.7274 39.2987 30.7031 39.2504 30.6547C39.2141 30.6062 39.2021 30.5395 39.2141 30.4547L39.7757 25.8547C39.7757 25.7819 39.7455 25.7456 39.6851 25.7456H36.9679C36.8955 25.7456 36.8592 25.7819 36.8592 25.8547L36.2977 30.4547C36.2856 30.5395 36.2494 30.6062 36.189 30.6547C36.1407 30.7031 36.0743 30.7274 35.9897 30.7274H33.2182C33.1337 30.7274 33.0672 30.7031 33.0189 30.6547C32.9827 30.6062 32.9706 30.5395 32.9827 30.4547L34.4862 18.2728C34.4983 18.188 34.5285 18.1213 34.5768 18.0728C34.6251 18.0244 34.6915 18.0001 34.7761 18.0001H37.5476C37.6321 18.0001 37.6925 18.0244 37.7287 18.0728C37.777 18.1213 37.7951 18.188 37.7831 18.2728L37.2396 22.7092C37.2276 22.7819 37.2578 22.8183 37.3302 22.8183H40.0293C40.1017 22.8183 40.144 22.7819 40.1561 22.7092L40.6995 18.2728ZM41.8951 33.2729C41.9676 33.2729 42.0219 33.2971 42.0581 33.3456C42.1064 33.3941 42.1245 33.4607 42.1125 33.5456L41.8226 35.9456C41.8106 36.0304 41.7804 36.0971 41.7321 36.1456C41.6838 36.1941 41.6173 36.2183 41.5328 36.2183H38.5982C38.5378 36.2183 38.4956 36.2547 38.4714 36.3274L37.3302 45.7274C37.3182 45.8122 37.2819 45.8789 37.2215 45.9274C37.1732 45.9759 37.1068 46.0001 37.0223 46.0001H34.2507C34.1662 46.0001 34.0998 45.9759 34.0515 45.9274C34.0152 45.8789 34.0032 45.8122 34.0152 45.7274L35.1746 36.3274C35.1746 36.2547 35.1444 36.2183 35.084 36.2183H32.24C32.1555 36.2183 32.0891 36.1941 32.0408 36.1456C32.0045 36.0971 31.9925 36.0304 32.0045 35.9456L32.2944 33.5456C32.3064 33.4607 32.3366 33.3941 32.3849 33.3456C32.4453 33.2971 32.5178 33.2729 32.6023 33.2729H41.8951Z" fill="#77CBD6"/>
</g>
<defs>
<clipPath id="clip0_209_353">
<rect width="50" height="50" fill="white"/>
</clipPath>
</defs>
</svg>
