<svg width="100" height="100" viewBox="0 0 100 100" fill="none" xmlns="http://www.w3.org/2000/svg">
<g clip-path="url(#clip0_122_515)">
<path d="M33.2749 86.1039L77.511 90.7938C79.3469 90.9881 81.1552 90.4716 82.5693 89.3468C83.9834 88.222 84.8935 86.5762 85.117 84.7437L90.4983 40.5864C91.413 33.1693 89.2026 25.5434 84.4235 19.5352L83.7555 18.6955C75.7059 8.57573 61.9091 5.46208 51.1254 11.3215C43.9896 15.2011 39.3351 22.4254 38.6136 30.7053L38.348 33.7531L35.3186 33.3262C27.0887 32.1667 19.0025 35.0768 13.6171 41.1569C5.48205 50.3462 5.4123 64.4898 13.4619 74.6096L14.1299 75.4493C18.909 81.4574 25.8422 85.3267 33.2749 86.1039Z" fill="white"/>
<path d="M76.853 36.4253C76.8751 36.27 76.9306 36.1481 77.0193 36.0593C77.1302 35.9706 77.2522 35.9263 77.3853 35.9263H82.5086C82.6417 35.9263 82.7415 35.9706 82.8081 36.0593C82.8968 36.1481 82.93 36.27 82.9079 36.4253L80.1798 58.7153C80.1577 58.8705 80.0912 58.9925 79.9802 59.0812C79.8915 59.1699 79.7806 59.2143 79.6475 59.2143H74.5242C74.3911 59.2143 74.2802 59.1699 74.1915 59.0812C74.125 58.9925 74.1028 58.8705 74.125 58.7153L75.1563 50.2983C75.1563 50.1652 75.1009 50.0987 74.9899 50.0987H69.9997C69.8666 50.0987 69.8 50.1652 69.8 50.2983L68.7687 58.7153C68.7466 58.8705 68.68 58.9925 68.5691 59.0812C68.4804 59.1699 68.3584 59.2143 68.2031 59.2143H63.113C62.9578 59.2143 62.8358 59.1699 62.7471 59.0812C62.6806 58.9925 62.6584 58.8705 62.6806 58.7153L65.4418 36.4253C65.464 36.27 65.5195 36.1481 65.6082 36.0593C65.6969 35.9706 65.8189 35.9263 65.9741 35.9263H71.0642C71.2195 35.9263 71.3304 35.9706 71.3969 36.0593C71.4856 36.1481 71.5189 36.27 71.4967 36.4253L70.4987 44.5428C70.4765 44.6759 70.5319 44.7425 70.665 44.7425H75.622C75.7551 44.7425 75.8328 44.6759 75.8549 44.5428L76.853 36.4253ZM79.0487 63.8719C79.1818 63.8719 79.2816 63.9163 79.3481 64.005C79.4368 64.0937 79.4701 64.2157 79.4479 64.3709L78.9156 68.7624C78.8935 68.9176 78.838 69.0397 78.7493 69.1284C78.6606 69.217 78.5386 69.2614 78.3833 69.2614H72.9938C72.8829 69.2614 72.8053 69.328 72.7609 69.461L70.665 86.6609C70.6429 86.8161 70.5763 86.9382 70.4654 87.0269C70.3767 87.1156 70.2547 87.1599 70.0995 87.1599H65.0094C64.8541 87.1599 64.7321 87.1156 64.6434 87.0269C64.5769 86.9382 64.5547 86.8161 64.5769 86.6609L66.7061 69.461C66.7061 69.328 66.6506 69.2614 66.5397 69.2614H61.3165C61.1613 69.2614 61.0393 69.217 60.9506 69.1284C60.884 69.0397 60.8619 68.9176 60.884 68.7624L61.4163 64.3709C61.4385 64.2157 61.494 64.0937 61.5827 64.005C61.6936 63.9163 61.8267 63.8719 61.9819 63.8719H79.0487Z" fill="#77CBD6"/>
</g>
<defs>
<clipPath id="clip0_122_515">
<rect width="100" height="100" fill="white"/>
</clipPath>
</defs>
</svg>
