<svg width="50" height="50" viewBox="0 0 50 50" fill="none" xmlns="http://www.w3.org/2000/svg">
<g clip-path="url(#clip0_122_514)">
<path d="M16.6375 43.052L38.7555 45.3969C39.6734 45.4941 40.5776 45.2358 41.2846 44.6734C41.9917 44.111 42.4467 43.2881 42.5585 42.3719L45.2492 20.2932C45.7065 16.5847 44.6013 12.7717 42.2117 9.76761L41.8778 9.34776C37.8529 4.28786 30.9546 2.73104 25.5627 5.66076C21.9948 7.60054 19.6676 11.2127 19.3068 15.3526L19.174 16.8765L17.6593 16.6631C13.5443 16.0834 9.50123 17.5384 6.80857 20.5785C2.74102 25.1731 2.70615 32.2449 6.73097 37.3048L7.06493 37.7246C9.45449 40.7287 12.9211 42.6633 16.6375 43.052Z" fill="#77CBD6"/>
<path d="M38.4265 18.2126C38.4376 18.135 38.4653 18.074 38.5097 18.0297C38.5651 17.9853 38.6261 17.9631 38.6926 17.9631H41.2543C41.3209 17.9631 41.3708 17.9853 41.404 18.0297C41.4484 18.074 41.465 18.135 41.4539 18.2126L40.0899 29.3576C40.0788 29.4353 40.0456 29.4963 39.9901 29.5406C39.9458 29.585 39.8903 29.6072 39.8238 29.6072H37.2621C37.1956 29.6072 37.1401 29.585 37.0957 29.5406C37.0625 29.4963 37.0514 29.4353 37.0625 29.3576L37.5781 25.1492C37.5781 25.0826 37.5504 25.0494 37.495 25.0494H34.9998C34.9333 25.0494 34.9 25.0826 34.9 25.1492L34.3844 29.3576C34.3733 29.4353 34.34 29.4963 34.2845 29.5406C34.2402 29.585 34.1792 29.6072 34.1016 29.6072H31.5565C31.4789 29.6072 31.4179 29.585 31.3735 29.5406C31.3403 29.4963 31.3292 29.4353 31.3403 29.3576L32.7209 18.2126C32.732 18.135 32.7597 18.074 32.8041 18.0297C32.8485 17.9853 32.9094 17.9631 32.9871 17.9631H35.5321C35.6097 17.9631 35.6652 17.9853 35.6985 18.0297C35.7428 18.074 35.7594 18.135 35.7484 18.2126L35.2493 22.2714C35.2383 22.338 35.266 22.3712 35.3325 22.3712H37.811C37.8776 22.3712 37.9164 22.338 37.9275 22.2714L38.4265 18.2126ZM39.5244 31.936C39.5909 31.936 39.6408 31.9581 39.6741 32.0025C39.7184 32.0468 39.735 32.1079 39.724 32.1855L39.4578 34.3812C39.4467 34.4588 39.419 34.5198 39.3746 34.5642C39.3303 34.6085 39.2693 34.6307 39.1917 34.6307H36.4969C36.4415 34.6307 36.4027 34.664 36.3805 34.7305L35.3325 43.3305C35.3214 43.4081 35.2882 43.4691 35.2327 43.5134C35.1884 43.5578 35.1273 43.58 35.0497 43.58H32.5047C32.4271 43.58 32.3661 43.5578 32.3217 43.5134C32.2884 43.4691 32.2773 43.4081 32.2884 43.3305L33.353 34.7305C33.353 34.664 33.3253 34.6307 33.2699 34.6307H30.6583C30.5806 34.6307 30.5197 34.6085 30.4753 34.5642C30.442 34.5198 30.4309 34.4588 30.442 34.3812L30.7082 32.1855C30.7193 32.1079 30.747 32.0468 30.7913 32.0025C30.8468 31.9581 30.9133 31.936 30.991 31.936H39.5244Z" fill="white"/>
</g>
<defs>
<clipPath id="clip0_122_514">
<rect width="50" height="50" fill="white"/>
</clipPath>
</defs>
</svg>
