<svg width="12" height="12" viewBox="0 0 12 12" fill="none" xmlns="http://www.w3.org/2000/svg">
<g clip-path="url(#clip0_20_744)">
<path d="M11.7797 6.52969C12.0727 6.23672 12.0727 5.76094 11.7797 5.46797L8.77969 2.46797C8.48672 2.175 8.01094 2.175 7.71797 2.46797C7.425 2.76094 7.425 3.23672 7.71797 3.52969L9.43828 5.25H4.5C4.08516 5.25 3.75 5.58516 3.75 6C3.75 6.41484 4.08516 6.75 4.5 6.75H9.43828L7.71797 8.47031C7.425 8.76328 7.425 9.23906 7.71797 9.53203C8.01094 9.825 8.48672 9.825 8.77969 9.53203L11.7797 6.53203V6.52969ZM3.75 2.25C4.16484 2.25 4.5 1.91484 4.5 1.5C4.5 1.08516 4.16484 0.75 3.75 0.75H2.25C1.00781 0.75 0 1.75781 0 3V9C0 10.2422 1.00781 11.25 2.25 11.25H3.75C4.16484 11.25 4.5 10.9148 4.5 10.5C4.5 10.0852 4.16484 9.75 3.75 9.75H2.25C1.83516 9.75 1.5 9.41484 1.5 9V3C1.5 2.58516 1.83516 2.25 2.25 2.25H3.75Z" fill="#757575"/>
</g>
<defs>
<clipPath id="clip0_20_744">
<rect width="12" height="12" fill="white"/>
</clipPath>
</defs>
</svg>
