<svg width="12" height="12" viewBox="0 0 12 12" fill="none" xmlns="http://www.w3.org/2000/svg">
<path d="M8.25 2.5H9.75C10.1648 2.5 10.5 2.83516 10.5 3.25V9.25C10.5 9.66484 10.1648 10 9.75 10H8.25C7.83516 10 7.5 10.3352 7.5 10.75C7.5 11.1648 7.83516 11.5 8.25 11.5H9.75C10.9922 11.5 12 10.4922 12 9.25V3.25C12 2.00781 10.9922 1 9.75 1H8.25C7.83516 1 7.5 1.33516 7.5 1.75C7.5 2.16484 7.83516 2.5 8.25 2.5ZM8.02969 6.77969C8.32266 6.48672 8.32266 6.01094 8.02969 5.71797L5.02969 2.71797C4.73672 2.425 4.26094 2.425 3.96797 2.71797C3.675 3.01094 3.675 3.48672 3.96797 3.77969L5.68828 5.5H0.75C0.335156 5.5 0 5.83516 0 6.25C0 6.66484 0.335156 7 0.75 7H5.68828L3.96797 8.72031C3.675 9.01328 3.675 9.48906 3.96797 9.78203C4.26094 10.075 4.73672 10.075 5.02969 9.78203L8.02969 6.78203V6.77969Z" fill="#757575"/>
</svg>
