<svg width="30" height="30" viewBox="0 0 30 30" fill="none" xmlns="http://www.w3.org/2000/svg">
<path d="M0 5.625C0 3.55664 1.68164 1.875 3.75 1.875H26.25C28.3184 1.875 30 3.55664 30 5.625V24.375C30 26.4434 28.3184 28.125 26.25 28.125H3.75C1.68164 28.125 0 26.4434 0 24.375V5.625ZM18.9727 11.8652C18.709 11.4785 18.2754 11.25 17.8125 11.25C17.3496 11.25 16.9102 11.4785 16.6523 11.8652L11.5547 19.3418L10.002 17.4023C9.73242 17.0684 9.32812 16.875 8.90625 16.875C8.48438 16.875 8.07422 17.0684 7.81055 17.4023L4.06055 22.0898C3.7207 22.5117 3.65625 23.0918 3.89063 23.5781C4.125 24.0645 4.61719 24.375 5.15625 24.375H10.7812H12.6562H24.8438C25.3652 24.375 25.8457 24.0879 26.0859 23.625C26.3262 23.1621 26.2969 22.6055 26.0039 22.1777L18.9727 11.8652ZM6.5625 11.25C7.30842 11.25 8.02379 10.9537 8.55124 10.4262C9.07868 9.89879 9.375 9.18342 9.375 8.4375C9.375 7.69158 9.07868 6.97621 8.55124 6.44876C8.02379 5.92132 7.30842 5.625 6.5625 5.625C5.81658 5.625 5.10121 5.92132 4.57376 6.44876C4.04632 6.97621 3.75 7.69158 3.75 8.4375C3.75 9.18342 4.04632 9.89879 4.57376 10.4262C5.10121 10.9537 5.81658 11.25 6.5625 11.25Z" fill="white"/>
</svg>
