<svg width="30" height="30" viewBox="0 0 30 30" fill="none" xmlns="http://www.w3.org/2000/svg">
<g clip-path="url(#clip0_546_335)">
<path d="M21.252 1.13086L18.416 3.9668L26.0332 11.584L28.8692 8.74805C30.334 7.2832 30.334 4.91016 28.8692 3.44531L26.5606 1.13086C25.0957 -0.333984 22.7227 -0.333984 21.2578 1.13086H21.252ZM17.0918 5.29102L3.43361 18.9551C2.82424 19.5645 2.37893 20.3203 2.13283 21.1465L0.0586149 28.1953C-0.0878695 28.6934 0.0468962 29.2266 0.410177 29.5898C0.773459 29.9531 1.30666 30.0879 1.79885 29.9473L8.84768 27.873C9.67385 27.627 10.4297 27.1816 11.0391 26.5723L24.709 12.9082L17.0918 5.29102Z" fill="white"/>
</g>
<defs>
<clipPath id="clip0_546_335">
<rect width="30" height="30" fill="white"/>
</clipPath>
</defs>
</svg>
